<svg height="192" viewBox="0 0 192 192" width="192" xmlns="http://www.w3.org/2000/svg"><g fill="none" fill-rule="evenodd"><path d="m0 0h192v192h-192z"/><g stroke-width="4"><path d="m98.24 89.5779613v69.7367577c-.48 22.76048-36.1087576 22.76048-36.1087576 0" fill-rule="nonzero" stroke="#e60000" stroke-linecap="round" stroke-linejoin="round"/><path d="m121.837266 99.31c-1.723497-30.5922407-9.424631-54.8534945-23.1034014-72.7837615-16.1816723 20.8349201-24.2725084 45.096174-24.2725084 72.7837615" fill-rule="nonzero" stroke="#666" stroke-linecap="round" stroke-linejoin="round"/><path d="m82.508733 24.2084804c6.8615568 1.5451721 12.0373677 2.3177581 15.5274328 2.3177581 3.4900652 0 8.6658762-.772586 15.5274322-2.3177581" fill-rule="nonzero" stroke="#666"/><path d="m173.52 92c-2.679367-33.5736593-27.269982-61.3135708-60.28-68-8.412112-7.9696613-21.5878875-7.9696613-30 0-33.0100177 6.6864292-57.6006334 34.4263407-60.28 68-.1227298 1.620111.7467194 3.1535031 2.2 3.88 4.5971142.23 10.2832751-6.15 25.4407521-6.15 15.1574769 0 18.2652884 9.58 23.2192479 9.58 1.2881334-.0524834 2.4720075-.7226008 3.18-1.8 1.4417045-2.0632354 3.3324299-3.772752 5.53-5l.5-.29.19-.11c3.8-2.4 8.51-3.52 14.79-3.52h.23c3.020296-.0121489 6.029189.3711068 8.95 1.14 2.191423.571724 4.304018 1.4113882 6.29 2.5 2.391183 1.2581689 4.448023 3.0681878 6 5.28.615371.9355471 1.594721 1.5703111 2.7 1.75 2.148108.0150192 3.805868-5.1840186 12.239715-8.2701574 8.433846-3.0861388 15.852759-3.0861388 22.725488-1.2598426 6.967088 1.8513702 12.024006 7.0847725 13.734797 6.38.12 0 .24-.08.35-.13 1.524619-.7127926 2.43998-2.3036818 2.29-3.98z" stroke="#666"/></g></g></svg>