<svg xmlns="http://www.w3.org/2000/svg" xmlns:xlink="http://www.w3.org/1999/xlink" width="192" height="192" viewBox="0 0 192 192"><defs><symbol id="1cf0b788-6cbc-4b64-b37e-ae9d414a68d2" data-name="24_7_support_ic_mid" viewBox="0 0 192 192"><rect width="192" height="192" fill="none"/><path d="M124.78,164.08a75.19,75.19,0,1,1,24.67-17.3l-.39.44A39,39,0,0,0,170,174c-16.56,1.41-34,1.51-45.22-9.92Z" fill="none" stroke="#666" stroke-linecap="round" stroke-linejoin="round" stroke-width="4"/><g id="1e34744a-3749-409c-a85d-21993cb9a70f" data-name="ICON"><line x1="87.6" y1="80" x2="87.6" y2="112" fill="none" stroke="#e60000" stroke-linecap="round" stroke-linejoin="round" stroke-width="4"/><polyline points="92.78 103.04 70.78 103.04 87.6 80" fill="none" stroke="#e60000" stroke-linecap="round" stroke-linejoin="round" stroke-width="4"/><polyline points="124.78 80 142.78 80 128.78 112" fill="none" stroke="#e60000" stroke-linecap="round" stroke-linejoin="round" stroke-width="4"/><line x1="98.03" y1="112" x2="117.53" y2="77" fill="none" stroke="#666" stroke-linecap="round" stroke-linejoin="round" stroke-width="4"/><path d="M47.22,86c2.5-4,11.92-7.95,16-2,8,11.67-15.28,11.59-15.28,28H65.28" fill="none" stroke="#e60000" stroke-linecap="round" stroke-linejoin="round" stroke-width="4"/></g></symbol></defs><title>24-7-support-mid</title><g id="b2aad964-bdbc-46c7-8506-8476d2b9a258" data-name="ICON"><use id="ec186812-5566-47c5-8aa2-62f604cbeae9" data-name="24_7_support_ic_mid" width="192" height="192" transform="translate(0 0)" xlink:href="#1cf0b788-6cbc-4b64-b37e-ae9d414a68d2"/></g></svg>