<svg id="2afea766-bb8b-4159-a200-99c2717fe265" data-name="ICON" xmlns="http://www.w3.org/2000/svg" width="192" height="192" viewBox="0 0 192 192"><title>network-signal-mid</title><g id="6871593f-ec15-42b1-b19f-762771e222b8" data-name="Business_ic_mid"><path d="M74.95,52.62a30.46,30.46,0,0,0,0,43.12" transform="translate(0 0)" fill="none" stroke="#e60000" stroke-linecap="round" stroke-linejoin="round" stroke-width="4"/><path d="M57.34,37.22a52.21,52.21,0,0,0,0,73.93" transform="translate(0 0)" fill="none" stroke="#e60000" stroke-linecap="round" stroke-linejoin="round" stroke-width="4"/><path d="M39.73,21.82a74,74,0,0,0,0,104.73" transform="translate(0 0)" fill="none" stroke="#e60000" stroke-linecap="round" stroke-linejoin="round" stroke-width="4"/><rect width="192" height="192" fill="none"/><path d="M117.05,52.62a30.46,30.46,0,0,1,0,43.12" transform="translate(0 0)" fill="none" stroke="#e60000" stroke-linecap="round" stroke-linejoin="round" stroke-width="4"/><path d="M134.66,37.22a52.21,52.21,0,0,1,0,73.93" transform="translate(0 0)" fill="none" stroke="#e60000" stroke-linecap="round" stroke-linejoin="round" stroke-width="4"/><path d="M152.27,21.82a74,74,0,0,1,0,104.73" transform="translate(0 0)" fill="none" stroke="#e60000" stroke-linecap="round" stroke-linejoin="round" stroke-width="4"/></g><g id="b7d64277-2ca3-4cd1-8af8-dd4ca566f89a" data-name="Network_signal_ic"><polyline points="124 174 95.91 66 67.82 174 111 124" fill="none" stroke="#6d6968" stroke-linecap="round" stroke-linejoin="round" stroke-width="4"/><polyline points="67.82 174 95.91 66 124 174 81 124" fill="none" stroke="#6d6968" stroke-linecap="round" stroke-linejoin="round" stroke-width="4"/></g></svg>