<svg id="0f1b63bb-d725-4f62-a5d2-139fef99c8f2" data-name="ICON" xmlns="http://www.w3.org/2000/svg" width="192" height="192" viewBox="0 0 192 192"><title>price-promise-mid</title><g id="a64e12bc-c939-4ae1-b5e9-bc3d1cc8d59d" data-name="Business_ic_mid"><rect width="192" height="192" fill="none"/><polyline points="120.04 80 88.2 112 74.04 98" fill="none" stroke="#e60000" stroke-linecap="round" stroke-linejoin="round" stroke-width="4"/><path d="M165.64,77.85a26.11,26.11,0,0,1-.54,37.34A26.11,26.11,0,0,1,146,147.24a26.11,26.11,0,0,1-32.61,18.2A26.11,26.11,0,0,1,76,164.9,26.11,26.11,0,0,1,44,145.76a26.11,26.11,0,0,1-18.2-32.61,26.11,26.11,0,0,1,.54-37.34A26.11,26.11,0,0,1,45.44,43.76,26.11,26.11,0,0,1,78,25.56a26.11,26.11,0,0,1,37.34.54,26.11,26.11,0,0,1,32.06,19.14,26.11,26.11,0,0,1,18.2,32.61Z" transform="translate(0 0)" fill="none" stroke="#666" stroke-linecap="round" stroke-linejoin="round" stroke-width="4"/><circle cx="96" cy="96" r="54" fill="none" stroke="#666" stroke-linecap="round" stroke-linejoin="round" stroke-width="4"/></g></svg>