<svg id="a3fd6cfe-d1e3-4b7d-ba36-ad9545271398" data-name="ICON" xmlns="http://www.w3.org/2000/svg" width="192" height="192" viewBox="0 0 192 192"><title>return-product-mid</title><rect width="192" height="192" transform="translate(192 192) rotate(-180)" fill="none"/><rect width="192" height="192" transform="translate(192 192) rotate(-180)" fill="none"/><path d="M42.14,126H32a14,14,0,0,1-14-14V88L28,58H78" transform="translate(0 0)" fill="none" stroke="#666" stroke-linejoin="round" stroke-width="4"/><line x1="130.14" y1="126" x2="70" y2="126" fill="none" stroke="#666" stroke-linejoin="round" stroke-width="4"/><path d="M78,126V56A14,14,0,0,1,92,42h68a14,14,0,0,1,14,14v56a14,14,0,0,1-14,14h-2.14" transform="translate(0 0)" fill="none" stroke="#666" stroke-linejoin="round" stroke-width="4"/><circle cx="144" cy="128" r="14" fill="none" stroke="#e60000" stroke-linejoin="round" stroke-width="4"/><circle cx="56" cy="128" r="14" fill="none" stroke="#e60000" stroke-linejoin="round" stroke-width="4"/><rect width="192" height="192" transform="translate(192 192) rotate(-180)" fill="none"/><rect width="192" height="192" transform="translate(192 192) rotate(-180)" fill="none"/><rect width="192" height="192" transform="translate(192 192) rotate(-180)" fill="none"/><rect width="192" height="192" transform="translate(192 192) rotate(-180)" fill="none"/><line x1="104" y1="67.97" x2="115.95" y2="79.92" fill="none" stroke="#666" stroke-linecap="round" stroke-linejoin="round" stroke-width="4"/><path d="M108,100h27.63c8.23,0,15.47-6,16.35-14.21A16,16,0,0,0,136.08,68H107" transform="translate(0 0)" fill="none" stroke="#666" stroke-linecap="round" stroke-linejoin="round" stroke-width="4"/><line x1="115.97" y1="56" x2="104" y2="67.97" fill="none" stroke="#666" stroke-linecap="round" stroke-linejoin="round" stroke-width="4"/></svg>