<svg xmlns="http://www.w3.org/2000/svg" xmlns:xlink="http://www.w3.org/1999/xlink" width="192" height="192" viewBox="0 0 192 192"><defs><symbol id="a2aea5a0-8464-4bb7-b388-85824acf293e" data-name="Roaming_ic_mid" viewBox="0 0 192 192"><path d="M32.86,95c9.57,11.47,23.74,15.81,37.85,10.89l84.74-30.2a26.18,26.18,0,0,0,16.72-18.13h0A26.18,26.18,0,0,0,147.8,53.8L114.44,65.62" fill="none" stroke="#676767" stroke-linecap="round" stroke-linejoin="round" stroke-width="4"/><line x1="86.03" y1="75.68" x2="52.43" y2="87.58" fill="none" stroke="#676767" stroke-linecap="round" stroke-linejoin="round" stroke-width="4"/><path d="M92.1,81.84,58.4,47.6l9.39-3.27a10,10,0,0,1,7.75.51L123.9,70.69" fill="none" stroke="#676767" stroke-linecap="round" stroke-linejoin="round" stroke-width="4"/><line x1="28" y1="150" x2="164" y2="150" fill="none" stroke="#676767" stroke-linecap="round" stroke-linejoin="round" stroke-width="4"/><rect width="192" height="192" fill="none"/><path d="M52.43,87.58l-20-10.72a8.6,8.6,0,0,0-6.57-.38l-6,2.53,13,16Z" fill="none" stroke="#e60000" stroke-linecap="round" stroke-linejoin="round" stroke-width="4"/></symbol></defs><title>roaming-mid</title><g id="6bc9528f-d78d-4a39-9590-eb0800e82511" data-name="ICON"><use id="7ac5e5a5-e376-4d5e-912d-e148425f17c5" data-name="Roaming_ic_mid" width="192" height="192" transform="translate(0 0)" xlink:href="#a2aea5a0-8464-4bb7-b388-85824acf293e"/></g></svg>