<svg xmlns="http://www.w3.org/2000/svg" xmlns:xlink="http://www.w3.org/1999/xlink" width="192" height="192" viewBox="0 0 192 192"><defs><symbol id="ab12e038-6d25-4d83-aaa6-07f4b403c635" data-name="SoHo_ic_mid" viewBox="0 0 192 192"><path id="9d64ab02-28f8-4bc9-9fae-371f52b04be2" data-name="&lt;Pfad&gt;" d="M42,74V96c0,11.37,11,12,11,12h1" fill="none" stroke="#666" stroke-linecap="round" stroke-linejoin="round" stroke-width="4"/><path id="ecfdaf26-290e-4fd6-8c8d-e8e98ce3dc87" data-name="&lt;Pfad&gt;" d="M150,74V96.2c0,11.37-11,12.17-11,12.17" fill="none" stroke="#666" stroke-linecap="round" stroke-linejoin="round" stroke-width="4"/><rect width="192" height="192" fill="none"/><line x1="96" y1="118" x2="96" y2="162" fill="none" stroke="#666" stroke-linecap="round" stroke-linejoin="round" stroke-width="4"/><circle cx="96" cy="168" r="6" fill="none" stroke="#e60000" stroke-miterlimit="10" stroke-width="4"/><rect x="66" y="18" width="60" height="80" rx="12" ry="12" fill="none" stroke="#666" stroke-miterlimit="10" stroke-width="4"/><polyline points="62.33 162.47 70 144 122 144 129.67 162.47" fill="none" stroke="#666" stroke-linecap="round" stroke-linejoin="round" stroke-width="4"/><rect x="54" y="98" width="84" height="20" rx="6" ry="6" fill="none" stroke="#666" stroke-linecap="round" stroke-linejoin="round" stroke-width="4"/><circle cx="60" cy="168" r="6" fill="none" stroke="#e60000" stroke-miterlimit="10" stroke-width="4"/><circle cx="132" cy="168" r="6" fill="none" stroke="#e60000" stroke-miterlimit="10" stroke-width="4"/></symbol></defs><title>soho-mid</title><g id="a7534876-6459-48ab-86da-c37b5f7597ca" data-name="ICON"><use id="5f10b56d-8430-4590-ba40-daf5446bfaf5" data-name="SoHo_ic_mid" width="192" height="192" transform="translate(0 0)" xlink:href="#ab12e038-6d25-4d83-aaa6-07f4b403c635"/></g></svg>