<svg id="932395b7-2c74-44ae-8fca-a2041b6eae56" data-name="ICON" xmlns="http://www.w3.org/2000/svg" width="192" height="192" viewBox="0 0 192 192"><title>top-up-mid</title><g id="0569998d-ef26-44ee-8d8b-4a1ad6b1d1f3" data-name="Business_ic_mid"><line x1="94" y1="158" x2="108" y2="158" fill="none" stroke="#666" stroke-linecap="round" stroke-linejoin="round" stroke-width="4"/><rect width="192" height="192" fill="none"/><ellipse cx="50" cy="133.5" rx="36" ry="12.5" fill="none" stroke="#666" stroke-miterlimit="10" stroke-width="4"/><path d="M86,133.5v23.6c-4.7,5.5-19,8.39-36,8.39s-31.3-4-36-9.5V133" transform="translate(0 0)" fill="none" stroke="#666" stroke-linecap="round" stroke-linejoin="round" stroke-width="4"/><path d="M22,161v16c4.7,5.5,19,9,36,9s31.3-2.5,36-8V158s0-4-8-4" transform="translate(0 0)" fill="none" stroke="#666" stroke-linejoin="round" stroke-width="4"/><path d="M50,121V32A14,14,0,0,1,64,18h64a14,14,0,0,1,14,14V160a14,14,0,0,1-14,14H94" transform="translate(0 0)" fill="none" stroke="#666" stroke-linecap="round" stroke-linejoin="round" stroke-width="4"/></g><g id="62071aad-64b4-4b3f-a4e8-afb981535d0f" data-name="Upgrade_notsignedoff_ic_mid"><polyline points="78 72 96.03 54 114 72" fill="none" stroke="#e60000" stroke-linecap="round" stroke-linejoin="round" stroke-width="4"/><line x1="96" y1="110" x2="96" y2="54" fill="none" stroke="#e60000" stroke-linecap="round" stroke-linejoin="round" stroke-width="4"/></g></svg>