<svg xmlns="http://www.w3.org/2000/svg" xmlns:xlink="http://www.w3.org/1999/xlink" width="192" height="192" viewBox="0 0 192 192"><defs><symbol id="42ebae58-9aa1-403b-9fd3-b075f1b5c1ed" data-name="Unified_communications_ic_mid" viewBox="0 0 192 192"><path id="19d9c022-c043-4036-acb7-55725b07429e" data-name="&lt;Pfad&gt;" d="M79.59,131.57l12.77-5.2c3.19-.69,6.17-.27,7.62,1.27,2.2,2.34,20.32,23.13,21.84,24.95s1.37,5.78-2.22,8.72-19.43,14.09-24.39,12.55-25.71-7.74-54.14-57.63S18,45.51,19.2,40.49s19-12.77,23.39-14.31,7.87.45,8.67,2.6c.91,2.45,9.39,28.46,10.29,31.42.62,2-.58,4.79-2.83,7.14S47.45,78.6,47.45,78.6s1.65,8.82,12.77,26.87C72.37,125.19,79.59,131.57,79.59,131.57Z" fill="none" stroke="#666" stroke-linecap="round" stroke-linejoin="round" stroke-width="4"/><rect width="192" height="192" fill="none"/><path id="68d14d64-be9d-4702-b6ef-23fac2e5f1ca" data-name="&lt;Pfad&gt;" d="M113.22,85.25c-8.28,4.72-11.8,6.21-11.8,6.21a40.37,40.37,0,0,1-7.23,1.95,41.54,41.54,0,0,1-10.52.44s8.55-5.24,12.21-14.13c-2.82-1.27-7.67-3.45-10-5.23a33.22,33.22,0,0,1-6.08-6,28.5,28.5,0,0,1-4.07-7.22A26.36,26.36,0,0,1,74,53.1a27.32,27.32,0,0,1,2.55-12.83A33.88,33.88,0,0,1,84.7,29.41a42.81,42.81,0,0,1,12.45-7.76A49.09,49.09,0,0,1,112.7,18.1a48.4,48.4,0,0,1,15.79,1.55,41.28,41.28,0,0,1,13.13,6.14,32.45,32.45,0,0,1,9.13,9.76s3.57,5.37,3.23,11.33" fill="none" stroke="#666" stroke-linecap="round" stroke-linejoin="round" stroke-width="4"/><path id="0f22c16b-c33a-47a9-b5fc-4e7fa4310cfc" data-name="&lt;Pfad&gt;" d="M157.58,47.83,156,47.37a41.73,41.73,0,0,0-13.33-1.28A42.21,42.21,0,0,0,129.55,49,36.28,36.28,0,0,0,119,55.43a28,28,0,0,0-6.86,9A22.14,22.14,0,0,0,110,75a21.76,21.76,0,0,0,3.19,10.26,27,27,0,0,0,7.71,8.06A35.15,35.15,0,0,0,132,98.39a41.67,41.67,0,0,0,13.33,1.28l.44,0a37.35,37.35,0,0,0,4.75,2.77,35.8,35.8,0,0,0,6.24,2.37,34.2,34.2,0,0,0,7.62,1.2,35.73,35.73,0,0,0,8.86-.74s-9.3-5.44-9.56-11.06a34.17,34.17,0,0,0,6.12-4.6,28.78,28.78,0,0,0,4.6-5.59,24.11,24.11,0,0,0,2.82-6.35,21.58,21.58,0,0,0-2.42-17.13,25.8,25.8,0,0,0-4.69-5.66,43.91,43.91,0,0,0-12.51-7" fill="none" stroke="#e60000" stroke-linecap="round" stroke-linejoin="round" stroke-width="4"/></symbol></defs><title>unified-communication-mid</title><g id="6064e8b7-f2db-4f28-be79-7307bee01ba5" data-name="ICON"><use id="f9f5846f-4c2b-4cd6-8e2f-5cbafadb74b2" data-name="Unified_communications_ic_mid" width="192" height="192" transform="translate(0 0)" xlink:href="#42ebae58-9aa1-403b-9fd3-b075f1b5c1ed"/></g></svg>