<svg id="63a56a57-8dc7-471a-b11c-7ecae83d5615" data-name="car-dongle" xmlns="http://www.w3.org/2000/svg" width="192" height="192" viewBox="0 0 192 192"><title>v-car-dongle-mid</title><path d="M96,130H43.77c-6.53,0-11.83-5-11.83-11.2L28,29.2C28,23,33.29,18,39.83,18H152.17C158.71,18,164,23,164,29.2l-3.94,89.6c0,6.19-5.29,11.2-11.83,11.2Z" transform="translate(0 0)" fill="none" stroke="#666" stroke-linecap="round" stroke-linejoin="round" stroke-width="4"/><path d="M138,130v32a12,12,0,0,1-12,12H66a12,12,0,0,1-12-12V130" transform="translate(0 0)" fill="none" stroke="#666" stroke-linecap="round" stroke-linejoin="round" stroke-width="4"/><line id="35ef2f24-b60b-4e9b-bd5e-ca775924f0b4" data-name="d7a92b62-0827-45d7-8f2c-84a2b6be56ea" x1="122" y1="152" x2="70.16" y2="152" fill="none" stroke="#e60000" stroke-linecap="round" stroke-linejoin="round" stroke-width="4"/><rect width="192" height="192" fill="none"/></svg>