<svg id="ef26c520-79d6-45d7-b848-83482fe21471" data-name="ICON" xmlns="http://www.w3.org/2000/svg" width="192" height="192" viewBox="0 0 192 192"><title>v-pet-mid</title><g id="e3a2051f-20d2-4af5-835e-d44efa1b4782" data-name="Pet"><rect width="192" height="192" fill="none"/><path d="M57,132.92c-3.09-2.69-6.4-2.47-13.68-5.32A25.17,25.17,0,0,1,31,116.71C17.26,92.91,36.83,71.9,57.71,77.29c8.41,2.17,15.09,1.9,18.73-.2a28.52,28.52,0,0,1,11.07-3.76c12.92-1.43,22.71,8.45,22.71,8.45s9.88,9.79,8.45,22.71a28.52,28.52,0,0,1-3.76,11.07c-2.1,3.64-2.37,10.32-.2,18.73,5.39,20.88-15.62,40.45-39.42,26.67A25.17,25.17,0,0,1,64.4,148.72c-2.84-7.28-2.58-10.54-5.27-13.63Z" transform="translate(0 0)" fill="none" stroke="#666" stroke-linecap="round" stroke-linejoin="round" stroke-width="4"/><ellipse cx="142.88" cy="77.38" rx="14.13" ry="11.5" transform="translate(-12.87 123.7) rotate(-45)" fill="none" stroke="#666" stroke-linecap="round" stroke-linejoin="round" stroke-width="4"/><ellipse cx="114.62" cy="49.12" rx="14.13" ry="11.5" transform="translate(-1.16 95.43) rotate(-45)" fill="none" stroke="#666" stroke-linecap="round" stroke-linejoin="round" stroke-width="4"/><ellipse cx="73.38" cy="49.12" rx="14.13" ry="11.5" transform="translate(-13.24 66.28) rotate(-45)" fill="none" stroke="#e60000" stroke-linecap="round" stroke-linejoin="round" stroke-width="4"/><ellipse cx="142.88" cy="119.12" rx="14.13" ry="11.5" transform="translate(-42.38 135.92) rotate(-45)" fill="none" stroke="#666" stroke-linecap="round" stroke-linejoin="round" stroke-width="4"/><path d="M64,100.16" transform="translate(0 0)" fill="none" stroke="#666" stroke-linecap="round" stroke-linejoin="round" stroke-width="4"/></g></svg>