<svg xmlns="http://www.w3.org/2000/svg" xmlns:xlink="http://www.w3.org/1999/xlink" width="192" height="192" viewBox="0 0 192 192"><defs><symbol id="7b984bf2-843a-4f0e-b99a-9af38cc7fec9" data-name="Vodafone_alerts_ic_mid" viewBox="0 0 192 192"><line id="cd38785a-536e-4055-8b46-abbb0ac13262" data-name="&lt;Pfad&gt;" x1="130" y1="62" x2="42" y2="62" fill="none" stroke="#e60000" stroke-linecap="round" stroke-miterlimit="10" stroke-width="4"/><line id="c45634e0-34d6-4d2f-924c-03ad987b6a43" data-name="&lt;Pfad&gt;" x1="130" y1="86" x2="42" y2="86" fill="none" stroke="#e60000" stroke-linecap="round" stroke-miterlimit="10" stroke-width="4"/><line id="cee43aee-7585-4f25-a280-eee8367cc57d" data-name="&lt;Pfad&gt;" x1="130" y1="110" x2="42" y2="110" fill="none" stroke="#e60000" stroke-linecap="round" stroke-miterlimit="10" stroke-width="4"/><path d="M46,166V134H32a14,14,0,0,1-14-14V52A14,14,0,0,1,32,38H142a12,12,0,0,1,12,12v72a12,12,0,0,1-12,12H80Z" fill="none" stroke="#666" stroke-linecap="round" stroke-linejoin="round" stroke-width="4"/><path d="M38,38V36A14,14,0,0,1,52,22H160a14,14,0,0,1,14,14v68a14,14,0,0,1-14,14h-6" fill="none" stroke="#666" stroke-linejoin="round" stroke-width="4"/><rect width="192" height="192" fill="none"/></symbol></defs><title>voice-of-vodafone-alerts-mid</title><g id="0d0e239a-ea91-4216-94bb-a352237bc19b" data-name="ICON"><use id="51e3f413-c825-4e6c-8199-226fd299cea4" data-name="Vodafone_alerts_ic_mid" width="192" height="192" transform="translate(0 0)" xlink:href="#7b984bf2-843a-4f0e-b99a-9af38cc7fec9"/></g></svg>